<svg width="32" height="32" viewBox="0 0 32 32" fill="none" xmlns="http://www.w3.org/2000/svg">
<g id="ic_tap_star">
<path id="Vector" d="M26.9279 13.5337C26.8453 13.2862 26.6862 13.0676 26.471 12.9062C26.2557 12.7447 25.9942 12.6478 25.7201 12.6277L19.7752 12.1427C19.7392 12.1394 19.7049 12.1269 19.6758 12.1066C19.6468 12.0863 19.6241 12.059 19.6102 12.0276L17.2876 6.80337C17.18 6.56504 17.0006 6.36183 16.7716 6.21899C16.5427 6.07615 16.2743 6 15.9998 6C15.7254 6 15.4569 6.07615 15.228 6.21899C14.999 6.36183 14.8196 6.56504 14.712 6.80337L12.3894 12.0276C12.3755 12.059 12.3528 12.0863 12.3238 12.1066C12.2947 12.1269 12.2604 12.1394 12.2245 12.1427L6.2795 12.6277C6.00539 12.6478 5.7439 12.7447 5.52867 12.9062C5.31343 13.0676 5.15429 13.2862 5.07171 13.5337C4.98426 13.7815 4.97662 14.0483 5.04976 14.3002C5.1229 14.5522 5.27354 14.778 5.48264 14.9492L9.99285 18.6626C10.0205 18.6857 10.041 18.7154 10.0522 18.7487C10.0635 18.7819 10.0651 18.8173 10.0568 18.8513L8.70108 24.3727C8.63788 24.627 8.65591 24.8931 8.75289 25.1377C8.84988 25.3822 9.02146 25.5942 9.24598 25.7467C9.46702 25.9007 9.73187 25.9885 10.0063 25.9989C10.2808 26.0094 10.5523 25.9419 10.7857 25.8052L15.8958 22.8798C15.9259 22.8623 15.9605 22.853 15.9958 22.853C16.0311 22.853 16.0658 22.8623 16.0958 22.8798L21.2059 25.8052C21.4418 25.9415 21.7151 26.0088 21.9914 25.9986C22.2678 25.9885 22.5347 25.9012 22.7586 25.748C22.9825 25.5947 23.1532 25.3823 23.2493 25.1376C23.3454 24.8928 23.3625 24.6267 23.2985 24.3727L21.9468 18.8494C21.9385 18.8154 21.9401 18.78 21.9514 18.7468C21.9626 18.7136 21.9831 18.6838 22.0108 18.6607L26.521 14.9473C26.729 14.7758 26.8786 14.5501 26.951 14.2986C27.0234 14.047 27.0154 13.7809 26.9279 13.5337ZM25.7281 14.0923L21.2179 17.8057C21.0257 17.9635 20.8828 18.1679 20.8046 18.3967C20.7264 18.6255 20.7158 18.8701 20.774 19.1042L22.1257 24.6275C22.1357 24.6647 22.1335 24.7038 22.1194 24.7397C22.1053 24.7756 22.08 24.8066 22.0468 24.8285C22.0167 24.8513 21.9797 24.8643 21.9412 24.8659C21.9028 24.8674 21.8648 24.8573 21.8328 24.837L16.7227 21.9116C16.5048 21.7867 16.2548 21.7206 15.9998 21.7206C15.7449 21.7206 15.4948 21.7867 15.2769 21.9116L10.1668 24.837C10.1348 24.8573 10.0968 24.8674 10.0584 24.8659C10.0199 24.8643 9.98293 24.8513 9.95286 24.8285C9.91965 24.8066 9.8943 24.7756 9.8802 24.7397C9.86609 24.7038 9.86388 24.6647 9.87387 24.6275L11.2256 19.1042C11.2838 18.8701 11.2733 18.6255 11.195 18.3967C11.1168 18.1679 10.9739 17.9635 10.7817 17.8057L6.2715 14.0923C6.24066 14.0676 6.2185 14.0346 6.20797 13.9977C6.19743 13.9607 6.19902 13.9217 6.21251 13.8857C6.22261 13.8498 6.2445 13.8178 6.27504 13.7944C6.30558 13.771 6.3432 13.7574 6.38248 13.7554L12.3284 13.2704C12.583 13.2499 12.8268 13.1641 13.0333 13.0222C13.2399 12.8803 13.4013 12.6878 13.5002 12.4654L15.8228 7.24123C15.839 7.20881 15.8646 7.18139 15.8966 7.16219C15.9287 7.14298 15.9658 7.13279 16.0038 7.13279C16.0418 7.13279 16.0789 7.14298 16.111 7.16219C16.143 7.18139 16.1686 7.20881 16.1848 7.24123L18.4994 12.4654C18.598 12.6872 18.7588 12.8794 18.9646 13.0213C19.1704 13.1631 19.4133 13.2493 19.6672 13.2704L25.6131 13.7554C25.6524 13.7574 25.69 13.771 25.7206 13.7944C25.7511 13.8178 25.773 13.8498 25.7831 13.8857C25.7971 13.9213 25.7993 13.9601 25.7895 13.997C25.7797 14.0339 25.7583 14.0671 25.7281 14.0923Z" fill="black"/>
<path id="Vector_2" d="M25.9345 13.7803C25.8594 13.5575 25.7147 13.3609 25.519 13.2156C25.3234 13.0703 25.0857 12.983 24.8365 12.965L19.432 12.5284C19.3993 12.5254 19.3681 12.5142 19.3417 12.496C19.3153 12.4777 19.2946 12.4531 19.282 12.4248L17.1705 7.72303C17.0727 7.50854 16.9096 7.32565 16.7015 7.19709C16.4933 7.06854 16.2493 7 15.9998 7C15.7503 7 15.5063 7.06854 15.2982 7.19709C15.09 7.32565 14.9269 7.50854 14.8291 7.72303L12.7177 12.4248C12.705 12.4531 12.6844 12.4777 12.658 12.496C12.6316 12.5142 12.6004 12.5254 12.5677 12.5284L7.16318 12.965C6.91399 12.983 6.67628 13.0703 6.48061 13.2156C6.28493 13.3609 6.14026 13.5575 6.06519 13.7803C5.98569 14.0034 5.97874 14.2435 6.04524 14.4702C6.11173 14.697 6.24867 14.9002 6.43876 15.0543L10.539 18.3963C10.5641 18.4171 10.5827 18.4439 10.5929 18.4738C10.6032 18.5037 10.6046 18.5356 10.5971 18.5662L9.36462 23.5355C9.30716 23.7643 9.32355 24.0038 9.41172 24.2239C9.49989 24.444 9.65588 24.6348 9.85999 24.7721C10.0609 24.9106 10.3017 24.9897 10.5512 24.9991C10.8007 25.0084 11.0475 24.9477 11.2597 24.8247L15.9053 22.1919C15.9326 22.1761 15.9641 22.1677 15.9962 22.1677C16.0283 22.1677 16.0598 22.1761 16.0871 22.1919L20.7326 24.8247C20.9471 24.9474 21.1955 25.008 21.4468 24.9988C21.698 24.9896 21.9407 24.9111 22.1442 24.7732C22.3477 24.6353 22.5029 24.4441 22.5903 24.2238C22.6776 24.0035 22.6932 23.764 22.635 23.5355L21.4062 18.5645C21.3987 18.5339 21.4001 18.502 21.4103 18.4721C21.4206 18.4422 21.4392 18.4154 21.4643 18.3946L25.5645 15.0526C25.7536 14.8983 25.8897 14.6951 25.9555 14.4687C26.0213 14.2423 26.014 14.0028 25.9345 13.7803ZM24.8437 14.2831L20.7435 17.6251C20.5688 17.7672 20.4389 17.9511 20.3678 18.157C20.2967 18.3629 20.2871 18.5831 20.34 18.7938L21.5689 23.7648C21.5779 23.7982 21.5759 23.8334 21.5631 23.8657C21.5503 23.898 21.5272 23.9259 21.497 23.9457C21.4697 23.9661 21.4361 23.9779 21.4011 23.9793C21.3662 23.9807 21.3316 23.9716 21.3025 23.9533L16.657 21.3205C16.4589 21.208 16.2316 21.1485 15.9998 21.1485C15.768 21.1485 15.5407 21.208 15.3427 21.3205L10.6971 23.9533C10.668 23.9716 10.6335 23.9807 10.5985 23.9793C10.5635 23.9779 10.5299 23.9661 10.5026 23.9457C10.4724 23.9259 10.4494 23.898 10.4365 23.8657C10.4237 23.8334 10.4217 23.7982 10.4308 23.7648L11.6597 18.7938C11.7126 18.5831 11.703 18.3629 11.6318 18.157C11.5607 17.9511 11.4308 17.7672 11.2561 17.6251L7.15591 14.2831C7.12787 14.2608 7.10773 14.2311 7.09815 14.1979C7.08858 14.1647 7.09002 14.1295 7.10228 14.0971C7.11146 14.0648 7.13137 14.0361 7.15913 14.015C7.18689 13.9939 7.22109 13.9816 7.2568 13.9799L12.6622 13.5433C12.8936 13.5249 13.1152 13.4477 13.303 13.32C13.4908 13.1923 13.6376 13.019 13.7275 12.8189L15.8389 8.11711C15.8536 8.08793 15.8769 8.06325 15.906 8.04597C15.9352 8.02869 15.969 8.01951 16.0035 8.01951C16.038 8.01951 16.0718 8.02869 16.1009 8.04597C16.13 8.06325 16.1533 8.08793 16.168 8.11711L18.2722 12.8189C18.3618 13.0185 18.508 13.1915 18.6951 13.3191C18.8822 13.4468 19.103 13.5243 19.3338 13.5433L24.7392 13.9799C24.7749 13.9816 24.8091 13.9939 24.8369 14.015C24.8646 14.0361 24.8846 14.0648 24.8937 14.0971C24.9064 14.1292 24.9084 14.1641 24.8995 14.1973C24.8906 14.2305 24.8712 14.2604 24.8437 14.2831Z" fill="black"/>
<path id="Vector_3" d="M26.4503 15.1102L22.0239 18.755L23.3498 24.1816C23.42 24.4653 23.4 24.7622 23.2923 25.0352C23.1846 25.3082 22.994 25.5452 22.7443 25.7166C22.4946 25.8879 22.1969 25.986 21.8884 25.9986C21.58 26.0112 21.2744 25.9377 21.01 25.7874L15.9936 22.9167L10.9881 25.7874C10.7236 25.9377 10.4181 26.0112 10.1096 25.9986C9.80114 25.986 9.50345 25.8879 9.25377 25.7166C9.00408 25.5452 8.81347 25.3082 8.70576 25.0352C8.59805 24.7622 8.57803 24.4653 8.6482 24.1816L9.97222 18.7606L5.54475 15.1102C5.31057 14.9196 5.14124 14.6681 5.05798 14.3871C4.97473 14.1061 4.98126 13.8081 5.07675 13.5306C5.17224 13.2531 5.35244 13.0084 5.59476 12.8271C5.83708 12.6459 6.13073 12.5361 6.43888 12.5117L12.2748 12.0348L14.5528 6.90826C14.6718 6.63926 14.8724 6.40948 15.1295 6.24786C15.3866 6.08624 15.6886 6 15.9975 6C16.3065 6 16.6085 6.08624 16.8656 6.24786C17.1227 6.40948 17.3233 6.63926 17.4423 6.90826L19.7272 12.0348L25.5611 12.5117C25.8693 12.5361 26.1629 12.6459 26.4052 12.8271C26.6476 13.0084 26.8278 13.2531 26.9233 13.5306C27.0187 13.8081 27.0253 14.1061 26.942 14.3871C26.8588 14.6681 26.6894 14.9196 26.4553 15.1102H26.4503Z" fill="black"/>
</g>
</svg>
