<svg width="186" height="54" viewBox="0 0 186 54" fill="none" xmlns="http://www.w3.org/2000/svg">
<g id="ic_Doo_empty">
<path id="oo" d="M116.243 18C124.703 18 128.915 20.988 128.915 26.892V27.504C128.915 33.552 124.703 36.612 116.243 36.612H69.7312C67.7512 36.612 66.0232 36.396 64.4752 36.036C62.9632 35.64 61.7392 35.172 60.8032 34.56C59.9032 33.984 59.1472 33.264 58.5352 32.436C57.9592 31.608 57.5632 30.816 57.3472 29.988C57.1312 29.196 57.0232 28.368 57.0232 27.504V26.892C57.0232 26.028 57.1312 25.2 57.3472 24.408C57.5632 23.652 57.9592 22.824 58.5352 22.032C59.1112 21.24 59.8672 20.52 60.8032 19.944C61.7032 19.368 62.9272 18.9 64.4392 18.54C65.9872 18.18 67.7152 18 69.6952 18H116.243ZM122.291 27.288V27.144C122.291 26.028 121.787 25.056 120.743 24.3C119.807 23.58 118.259 23.22 116.171 23.148C116.027 23.148 70.4872 23.148 70.3432 23.148H70.3072C67.9312 23.148 66.2032 23.544 65.1952 24.3C64.1872 25.056 63.6832 25.992 63.6832 27.144V27.288C63.6832 28.404 64.1872 29.376 65.2312 30.168C66.2392 30.996 67.9312 31.392 70.3072 31.392C70.4872 31.392 116.063 31.392 116.243 31.392C118.331 31.32 119.807 30.924 120.743 30.168C121.787 29.376 122.291 28.404 122.291 27.288ZM86.7232 30.708L91.6912 23.868H99.1792L94.2112 30.708H86.7232Z" fill="#E2EFFF"/>
</g>
</svg>
